<svg width="20" height="20" viewBox="0 0 20 20" fill="none" xmlns="http://www.w3.org/2000/svg">
<g id="arrow-circle-down.9 1">
<path id="Vector" d="M10.0001 18.9582C5.05841 18.9582 1.04175 14.9415 1.04175 9.99984C1.04175 5.05817 5.05841 1.0415 10.0001 1.0415C14.9417 1.0415 18.9584 5.05817 18.9584 9.99984C18.9584 14.9415 14.9417 18.9582 10.0001 18.9582ZM10.0001 2.2915C5.75008 2.2915 2.29175 5.74984 2.29175 9.99984C2.29175 14.2498 5.75008 17.7082 10.0001 17.7082C14.2501 17.7082 17.7084 14.2498 17.7084 9.99984C17.7084 5.74984 14.2501 2.2915 10.0001 2.2915Z" fill="white"/>
<path id="Vector_2" d="M10.0002 12.5084C9.84183 12.5084 9.6835 12.4501 9.5585 12.3251L6.6168 9.38342C6.37513 9.14175 6.37513 8.74175 6.6168 8.50009C6.85846 8.25844 7.25846 8.25844 7.50013 8.50009L10.0002 11.0001L12.5002 8.50009C12.7418 8.25844 13.1418 8.25844 13.3835 8.50009C13.6252 8.74175 13.6252 9.14175 13.3835 9.38342L10.4418 12.3251C10.3168 12.4501 10.1585 12.5084 10.0002 12.5084Z" fill="white"/>
</g>
</svg>
