<svg width="383" height="43" viewBox="0 0 383 43" fill="none" xmlns="http://www.w3.org/2000/svg">
<rect x="0.5" y="0.5" width="382" height="42" rx="9.5" stroke="black"/>
<path d="M13.8526 15.64H21.2446V17.224H15.5806V20.536H21.0526V22.072H15.5806V25.416H21.3726V27H13.8526V15.64ZM23.4266 18.52H24.9786L25.0106 19.912C25.4266 18.904 26.2906 18.328 27.4266 18.328C28.6426 18.328 29.5226 18.968 29.8906 20.088C30.2746 18.952 31.1546 18.328 32.4346 18.328C34.1466 18.328 35.1706 19.48 35.1706 21.544V27H33.4746V22.072C33.4746 20.568 32.9466 19.752 31.9866 19.752C30.7706 19.752 30.0986 20.6 30.0986 22.072V27H28.4986V22.072C28.4986 20.6 27.9546 19.752 27.0106 19.752C25.8106 19.752 25.1226 20.6 25.1226 22.072V27H23.4266V18.52ZM37.0589 21.064C37.3949 19.352 38.7389 18.328 40.6909 18.328C42.9949 18.328 44.2589 19.608 44.2589 21.928V25.08C44.2589 25.512 44.4509 25.672 44.7869 25.672H45.1229V27H44.5949C43.8269 27.016 42.7869 26.888 42.7069 25.688C42.3229 26.504 41.3789 27.192 39.9709 27.192C38.2589 27.192 36.9149 26.28 36.9149 24.776C36.9149 23.08 38.1789 22.584 40.1309 22.216L42.5629 21.736C42.5469 20.376 41.9229 19.704 40.6909 19.704C39.6989 19.704 39.0429 20.216 38.8189 21.176L37.0589 21.064ZM38.6749 24.744C38.6749 25.368 39.2189 25.88 40.3389 25.88C41.6029 25.864 42.5949 24.968 42.5949 23.144V23.032L40.7869 23.352C39.6189 23.56 38.6749 23.672 38.6749 24.744ZM46.8484 18.52H48.5444V27H46.8484V18.52ZM46.8164 17.272V15.656H48.5924V17.272H46.8164ZM50.9578 15.64H52.6538V25.032C52.6538 25.416 52.8618 25.608 53.2298 25.608H53.9178V27H52.8618C51.7258 27 50.9578 26.264 50.9578 25.112V15.64Z" fill="#797979"/>
<path d="M358.591 29.6907C358.512 29.6123 358.45 29.5193 358.407 29.4168C358.365 29.3144 358.343 29.2046 358.343 29.0937C358.343 28.9829 358.365 28.8731 358.407 28.7706C358.45 28.6682 358.512 28.5751 358.591 28.4968L364.745 22.3437L348.219 22.3437C347.995 22.3437 347.78 22.2548 347.622 22.0966C347.464 21.9384 347.375 21.7238 347.375 21.5C347.375 21.2762 347.464 21.0616 347.622 20.9034C347.78 20.7451 347.995 20.6562 348.219 20.6562L364.745 20.6562L358.591 14.5032C358.432 14.3449 358.343 14.1301 358.343 13.9062C358.343 13.6823 358.432 13.4676 358.591 13.3093C358.749 13.151 358.964 13.062 359.188 13.062C359.411 13.062 359.626 13.151 359.785 13.3093L367.378 20.903C367.457 20.9814 367.519 21.0744 367.561 21.1769C367.604 21.2793 367.626 21.3891 367.626 21.5C367.626 21.6109 367.604 21.7207 367.561 21.8231C367.519 21.9255 367.457 22.0186 367.378 22.0969L359.785 29.6907C359.706 29.7691 359.613 29.8314 359.511 29.8738C359.408 29.9163 359.298 29.9381 359.188 29.9381C359.077 29.9381 358.967 29.9163 358.864 29.8738C358.762 29.8314 358.669 29.7691 358.591 29.6907Z" fill="black"/>
</svg>
