<svg width="185" height="20" viewBox="0 0 185 20" fill="none" xmlns="http://www.w3.org/2000/svg">
<g clip-path="url(#clip0_7_280)">
<path d="M19.5913 3.059C20.76 3.059 21.2297 3.55929 21.2297 3.55929L23.0246 1.00057C23.0246 1.00057 21.8522 0 19.6677 0C17.4833 0 15.1766 1.60015 14.2066 4.42238C13.2366 7.24461 11.4607 12.8776 11.4607 12.8776C11.4607 12.8776 10.1012 16.9792 6.57626 16.9792C3.51344 16.9792 1.8369 15.2645 1.8369 15.2645L-0.00384521 17.5177C-0.00384521 17.5177 2.21498 20 6.15999 20C10.105 20 12.7286 18.7856 14.5427 12.912C16.3605 7.03838 17.1854 5.21673 17.1854 5.21673C17.1854 5.21673 17.9568 3.059 19.5875 3.059H19.5913Z" fill="black"/>
<path d="M53.4695 8.22986L53.3473 8.63849C53.3473 8.63849 52.3735 7.76394 51.1476 7.76394C48.8295 7.76394 48.459 9.45575 48.459 9.45575L47.5692 12.7057C47.5692 12.7057 46.9849 13.3511 46.3968 13.3511C45.8087 13.3511 45.9805 12.7057 45.9805 12.7057C45.9805 12.7057 46.7099 10.147 46.7978 9.69253C46.9887 8.70341 46.0149 8.13057 45.2396 8.13057C43.8686 8.13057 42.6275 8.76833 42.6275 8.76833L42.3754 8.35589H39.832L38.6404 12.7095C38.6404 12.7095 38.2471 13.3549 37.594 13.3549C36.941 13.3549 37.1358 12.7095 37.1358 12.7095L38.2891 8.3177H35.5776L34.3288 12.7095C34.3288 12.7095 34.008 13.3549 33.3588 13.3549C32.7096 13.3549 32.8852 12.7095 32.8852 12.7095L35.2454 3.92969H32.4957L30.0363 12.7095C30.0363 12.7095 29.6124 13.3129 28.9479 13.3129C28.2834 13.3129 28.4017 12.7095 28.4017 12.7095L30.697 3.92969H27.9931L25.5375 12.7363C25.5375 12.7363 25.1862 13.3702 24.5713 13.3702C23.9565 13.3702 24.1092 12.8585 24.1092 12.8585L25.3886 8.27569H22.3563L22.2952 8.48191C22.2952 8.48191 22.1463 7.7945 20.3857 7.7945C18.6252 7.7945 18.2394 8.99365 18.2394 8.99365C18.2394 8.99365 17.5749 11.0444 17.1892 12.2589C16.9372 13.057 15.6005 13.1678 15.6005 13.1678V14.7145C16.8875 14.7145 17.0174 13.9698 17.0174 13.9698C18.4457 16.3108 20.9395 14.3822 20.9395 14.3822C23.2996 16.0588 25.2778 14.218 25.2778 14.218C27.4241 16.3414 29.9484 14.3822 29.9484 14.3822C31.9801 16.3948 34.2448 14.218 34.2448 14.218C35.5852 15.99 37.7468 14.5885 37.7468 14.5885C38.8314 15.2873 40.7905 14.7107 40.7905 14.7107L41.9018 10.5633C41.9018 10.5633 42.005 9.57414 43.0284 9.57414C44.0519 9.57414 43.7579 10.5633 43.7579 10.5633C43.7579 10.5633 43.3454 12.0832 42.9712 13.3473C42.5969 14.6114 43.5937 15.3484 45.0334 15.3484C46.4732 15.3484 47.4699 14.2142 47.4699 14.2142C48.9899 16.2994 51.35 14.8749 51.35 14.8749C50.6702 17.3267 48.3979 16.2535 48.3979 16.2535L47.7182 18.4685C47.7182 18.4685 48.2452 19.1789 50.3762 19.1789C52.7325 19.1789 53.2939 17.5596 53.2939 17.5596L55.8526 8.23368H53.4695V8.22986ZM21.7949 10.2425L21.0922 12.7019C21.0922 12.7019 20.8784 13.3473 20.3246 13.3473C19.7709 13.3473 19.9503 12.7019 19.9503 12.7019L20.6683 10.2425C20.6683 10.2425 20.844 9.55886 21.1953 9.55886C21.9706 9.55886 21.7949 10.2425 21.7949 10.2425ZM52.2895 10.2005L51.6135 12.7019C51.6135 12.7019 51.4226 13.3473 50.6282 13.3473C50.0286 13.3473 50.2463 12.7019 50.2463 12.7019L50.9146 10.2043C50.9146 10.2043 51.1209 9.53595 51.6326 9.53977C52.4995 9.54359 52.2933 10.2005 52.2933 10.2005H52.2895Z" fill="black"/>
<path d="M39.5837 3.8916H37.0785L36.4865 5.95385H38.9994L39.5837 3.8916Z" fill="black"/>
</g>
<g clip-path="url(#clip1_7_280)">
<path d="M98.2087 10.8963C98.2087 7.25114 96.08 5.23584 92.6955 5.23584C88.9307 5.23584 86.7032 7.42262 86.7032 11.4541C86.7032 15.4856 89.0017 17.5009 92.6955 17.5009C94.6839 17.5009 96.3329 16.9293 98.2087 15.5999L96.9824 13.1126C95.4876 13.8132 94.4587 14.1276 92.8791 14.1276C91.709 14.1276 91.1028 13.6703 90.8906 12.5548H98.11C98.1802 11.8689 98.2087 11.4255 98.2087 10.8963ZM90.8767 10.181C91.0603 8.86546 91.709 8.23671 92.6955 8.23671C93.7953 8.23671 94.4016 8.92262 94.444 10.181H90.8767Z" fill="#101314"/>
<path d="M113.464 13.9838C112.393 13.9838 112.124 13.4694 112.124 12.5973V9.09498H114.859V5.47835H112.124V2.5H107.782V5.47835H104.236V2.5H99.8932V5.47835H98.3144V9.09498H99.8932V12.7826C99.8932 16.1559 101.092 17.4714 103.898 17.4714C105.195 17.4714 106.675 17.1137 107.493 16.5993L107.055 13.9544C106.506 13.983 106.083 13.983 105.575 13.983C104.504 13.983 104.236 13.4685 104.236 12.5964V9.09411H107.782V12.7818C107.782 16.155 108.981 17.4706 111.787 17.4706C113.084 17.4706 114.564 17.1129 115.382 16.5984L114.944 13.9535C114.394 13.9821 113.972 13.9821 113.464 13.9821V13.9838Z" fill="#101314"/>
<path d="M121.332 5.23511C117.469 5.23511 115.199 7.46519 115.199 11.4248C115.199 15.3844 117.483 17.5001 121.346 17.5001C125.21 17.5001 127.48 15.2848 127.48 11.4248C127.48 7.56478 125.196 5.23511 121.332 5.23511ZM121.346 14.055C120.148 14.055 119.456 13.3976 119.456 11.4248C119.456 9.45191 120.175 8.68026 121.346 8.68026C122.517 8.68026 123.236 9.36617 123.236 11.4248C123.236 13.4834 122.517 14.0411 121.346 14.055Z" fill="#101314"/>
<path d="M81.4593 8.75375L81.4836 9.96189L75.9296 2.5H71.8488V17.2298H76.3643V11.0479L76.3401 9.76876L81.8941 17.2298H85.9749V2.5H81.4593V8.75375Z" fill="#101314"/>
</g>
<g clip-path="url(#clip2_7_280)">
<path d="M144.906 17.2247V9.22485H143.545V7.34014H144.906V5.26708C144.906 4.01061 145.765 2.98462 147.167 2.98462H149.89V4.86933H148.591C148.257 4.86933 148.088 5.0366 148.088 5.35138V7.34014H149.888V9.22485H148.088V17.2247H144.906Z" fill="#0F1114" stroke="#0F1114" stroke-width="0.5" stroke-miterlimit="10"/>
<path d="M158.722 10.5447V14.0204C158.722 16.0724 157.444 17.4342 154.764 17.4342C152.084 17.4342 150.827 16.1145 150.827 14.0204V10.5447C150.827 8.45055 152.188 7.13086 154.764 7.13086C157.34 7.13086 158.722 8.49138 158.722 10.5447ZM153.946 9.91644V12.3451L155.6 9.70703C155.537 9.22499 155.203 8.97474 154.784 8.97474C154.323 8.97474 153.946 9.2882 153.946 9.91644ZM155.622 14.7119V12.1778L153.946 14.837C154.009 15.3612 154.365 15.5903 154.784 15.5903C155.266 15.5903 155.622 15.3177 155.622 14.7105V14.7119Z" fill="#0F1114" stroke="#0F1114" stroke-width="0.5" stroke-miterlimit="10"/>
<path d="M159.802 9.22498V7.34026H161.162V4.30444C162.398 4.15824 163.214 3.42464 163.76 2.56592H164.346V7.34026H166.146V9.22498H164.346V14.6908C164.346 15.1939 164.576 15.3401 164.995 15.3401H166.146V17.2248H164.073C162.273 17.2248 161.162 16.262 161.162 14.4814V9.22498H159.802Z" fill="#0F1114" stroke="#0F1114" stroke-width="0.5" stroke-miterlimit="10"/>
<path d="M174.959 12.8904H170.477V14.9845C170.477 15.3822 170.686 15.697 171.189 15.697C171.608 15.697 171.86 15.3822 171.86 14.9845V13.8953H174.895V14.2509C174.895 16.3029 173.555 17.4342 171.105 17.4342C168.215 17.4342 167.293 15.9051 167.293 14.272V10.5025C167.293 8.42948 168.675 7.13086 171.23 7.13086C173.785 7.13086 174.957 8.32412 174.957 10.3563V12.8904H174.959ZM170.477 9.49762V11.1097H171.921V9.49762C171.921 9.05772 171.608 8.80616 171.209 8.80616C170.81 8.80616 170.475 9.05772 170.475 9.49762H170.477Z" fill="#0F1114" stroke="#0F1114" stroke-width="0.5" stroke-miterlimit="10"/>
<path d="M184.078 7.34009L181.607 11.9893L184.078 17.2246H180.895L179.805 14.5655L178.779 17.2246H175.596L178.046 11.9893L175.596 7.34009H178.779L179.89 9.85304L180.895 7.34009H184.078Z" fill="#0F1114" stroke="#0F1114" stroke-width="0.5" stroke-miterlimit="10"/>
</g>
<defs>
<clipPath id="clip0_7_280">
<rect width="55.8488" height="20" fill="white"/>
</clipPath>
<clipPath id="clip1_7_280">
<rect width="55.6308" height="15" fill="white" transform="translate(71.8488 2.5)"/>
</clipPath>
<clipPath id="clip2_7_280">
<rect width="40.7077" height="15" fill="white" transform="translate(143.48 2.5)"/>
</clipPath>
</defs>
</svg>
