<svg width="20" height="20" viewBox="0 0 20 20" fill="none" xmlns="http://www.w3.org/2000/svg">
<g id="teenyicons:instagram-outline" clip-path="url(#clip0_1_436)">
<path id="Vector" d="M14.6667 4.6665H16.0001M6.00008 0.666504H14.0001C15.4146 0.666504 16.7711 1.22841 17.7713 2.2286C18.7715 3.22879 19.3334 4.58535 19.3334 5.99984V13.9998C19.3334 15.4143 18.7715 16.7709 17.7713 17.7711C16.7711 18.7713 15.4146 19.3332 14.0001 19.3332H6.00008C4.58559 19.3332 3.22904 18.7713 2.22885 17.7711C1.22865 16.7709 0.666748 15.4143 0.666748 13.9998V5.99984C0.666748 4.58535 1.22865 3.22879 2.22885 2.2286C3.22904 1.22841 4.58559 0.666504 6.00008 0.666504ZM10.0001 13.9998C8.93921 13.9998 7.9218 13.5784 7.17165 12.8283C6.42151 12.0781 6.00008 11.0607 6.00008 9.99984C6.00008 8.93897 6.42151 7.92156 7.17165 7.17141C7.9218 6.42126 8.93921 5.99984 10.0001 5.99984C11.0609 5.99984 12.0784 6.42126 12.8285 7.17141C13.5787 7.92156 14.0001 8.93897 14.0001 9.99984C14.0001 11.0607 13.5787 12.0781 12.8285 12.8283C12.0784 13.5784 11.0609 13.9998 10.0001 13.9998Z" stroke="white"/>
</g>
<defs>
<clipPath id="clip0_1_436">
<rect width="20" height="20" fill="white"/>
</clipPath>
</defs>
</svg>
