<svg width="231" height="54" viewBox="0 0 231 54" fill="none" xmlns="http://www.w3.org/2000/svg">
<rect x="0.5" y="0.5" width="230" height="53" rx="26.5" fill="#1EB6E6"/>
<rect x="0.5" y="0.5" width="230" height="53" rx="26.5" stroke="black"/>
<path d="M30.4 29.32C30.4 30.44 30.1733 31.4067 29.72 32.22C29.2667 33.0333 28.6267 33.66 27.8 34.1C26.9867 34.54 26.0067 34.76 24.86 34.76C23.7133 34.76 22.7267 34.54 21.9 34.1C21.0733 33.66 20.4333 33.0333 19.98 32.22C19.54 31.4067 19.32 30.44 19.32 29.32V20.9H21.56V29.32C21.56 30.4533 21.8533 31.3467 22.44 32C23.0267 32.64 23.8333 32.96 24.86 32.96C25.9 32.96 26.7067 32.6333 27.28 31.98C27.8667 31.3267 28.16 30.44 28.16 29.32V20.9H30.4V29.32ZM36.5914 34.76C35.6581 34.76 34.8514 34.54 34.1714 34.1C33.4914 33.6467 32.9714 33 32.6114 32.16C32.2514 31.32 32.0714 30.3267 32.0714 29.18C32.0714 27.3667 32.4781 25.98 33.2914 25.02C34.1047 24.0467 35.2047 23.56 36.5914 23.56C37.7914 23.56 38.7447 24.04 39.4514 25C40.1714 25.96 40.5314 27.3533 40.5314 29.18C40.5314 30.3267 40.3714 31.32 40.0514 32.16C39.7314 32.9867 39.2714 33.6267 38.6714 34.08C38.0847 34.5333 37.3914 34.76 36.5914 34.76ZM36.8714 32.96C37.7247 32.96 38.3714 32.64 38.8114 32C39.2647 31.3467 39.4914 30.4067 39.4914 29.18C39.4914 27.9533 39.2581 27.0133 38.7914 26.36C38.3381 25.6933 37.6981 25.36 36.8714 25.36C36.0181 25.36 35.3647 25.6867 34.9114 26.34C34.4714 26.9933 34.2514 27.94 34.2514 29.18C34.2514 30.3933 34.4781 31.3267 34.9314 31.98C35.3981 32.6333 36.0447 32.96 36.8714 32.96ZM39.4914 34.5V20.1H41.6314V34.5H39.4914ZM44.0525 23.28C44.0525 22.12 44.2992 21.26 44.7925 20.7C45.2992 20.1267 46.0458 19.84 47.0325 19.84C47.3125 19.84 47.5525 19.86 47.7525 19.9C47.9525 19.94 48.1058 19.9867 48.2125 20.04V21.48H48.0125C47.2792 21.48 46.7858 21.6333 46.5325 21.94C46.2925 22.2333 46.1725 22.6867 46.1725 23.3V34.5H44.0525V23.28ZM42.6125 25.5V23.84H48.2125V25.5H42.6125ZM53.5952 34.76C52.5685 34.76 51.6818 34.54 50.9352 34.1C50.1885 33.6467 49.6152 33 49.2152 32.16C48.8152 31.32 48.6152 30.3267 48.6152 29.18C48.6152 27.9667 48.8152 26.9467 49.2152 26.12C49.6285 25.28 50.2085 24.6467 50.9552 24.22C51.7152 23.78 52.5952 23.56 53.5952 23.56C54.6352 23.56 55.5285 23.7867 56.2752 24.24C57.0218 24.6933 57.5885 25.34 57.9752 26.18C58.3752 27.0067 58.5752 28.0067 58.5752 29.18C58.5752 30.3667 58.3752 31.38 57.9752 32.22C57.5752 33.0467 57.0018 33.68 56.2552 34.12C55.5085 34.5467 54.6218 34.76 53.5952 34.76ZM53.5952 32.96C54.5018 32.96 55.1952 32.6333 55.6752 31.98C56.1552 31.3267 56.3952 30.3933 56.3952 29.18C56.3952 27.9533 56.1552 27.0133 55.6752 26.36C55.1952 25.6933 54.5018 25.36 53.5952 25.36C52.6885 25.36 51.9952 25.6867 51.5152 26.34C51.0352 26.9933 50.7952 27.94 50.7952 29.18C50.7952 30.3933 51.0352 31.3267 51.5152 31.98C52.0085 32.6333 52.7018 32.96 53.5952 32.96ZM60.2586 34.5V23.84H62.3986V34.5H60.2586ZM62.3986 28.68H61.5986C61.6519 27.48 61.8586 26.5067 62.2186 25.76C62.5919 25 63.0519 24.4467 63.5986 24.1C64.1586 23.74 64.7719 23.56 65.4386 23.56C65.6519 23.56 65.8519 23.5867 66.0386 23.64C66.2253 23.68 66.3653 23.7467 66.4586 23.84V25.72C66.2986 25.6667 66.1253 25.6333 65.9386 25.62C65.7519 25.5933 65.5453 25.58 65.3186 25.58C64.8119 25.58 64.3719 25.6533 63.9986 25.8C63.6386 25.9467 63.3386 26.16 63.0986 26.44C62.8586 26.7067 62.6786 27.0333 62.5586 27.42C62.4519 27.7933 62.3986 28.2133 62.3986 28.68ZM69.2148 26.64C69.2148 27.0267 69.3348 27.3267 69.5748 27.54C69.8148 27.74 70.1415 27.9 70.5548 28.02C70.9682 28.1267 71.4148 28.22 71.8948 28.3C72.3882 28.3667 72.8748 28.46 73.3548 28.58C73.8348 28.6867 74.2748 28.8467 74.6748 29.06C75.0882 29.26 75.4148 29.5467 75.6548 29.92C75.9082 30.2933 76.0348 30.7933 76.0348 31.42C76.0348 32.0867 75.8482 32.6733 75.4748 33.18C75.1015 33.6867 74.5815 34.08 73.9148 34.36C73.2615 34.6267 72.5015 34.76 71.6348 34.76C70.3548 34.76 69.2815 34.46 68.4148 33.86C67.5615 33.2467 67.0348 32.3 66.8348 31.02H68.9748C69.0815 31.6867 69.3748 32.2 69.8548 32.56C70.3348 32.92 70.9482 33.1 71.6948 33.1C72.4148 33.1 72.9615 32.9533 73.3348 32.66C73.7082 32.3667 73.8948 32 73.8948 31.56C73.8948 31.1867 73.7748 30.8933 73.5348 30.68C73.2948 30.4667 72.9682 30.3133 72.5548 30.22C72.1548 30.1133 71.7148 30.02 71.2348 29.94C70.7548 29.86 70.2748 29.7667 69.7948 29.66C69.3282 29.54 68.8948 29.3733 68.4948 29.16C68.0948 28.9467 67.7748 28.6533 67.5348 28.28C67.2948 27.8933 67.1748 27.3867 67.1748 26.76C67.1748 26.2 67.3148 25.68 67.5948 25.2C67.8882 24.7067 68.3282 24.3133 68.9148 24.02C69.5148 23.7133 70.2682 23.56 71.1748 23.56C71.9748 23.56 72.6882 23.6933 73.3148 23.96C73.9415 24.2133 74.4615 24.62 74.8748 25.18C75.2882 25.7267 75.5482 26.44 75.6548 27.32H73.5148C73.3948 26.5733 73.1282 26.0467 72.7148 25.74C72.3015 25.42 71.7548 25.26 71.0748 25.26C70.4882 25.26 70.0282 25.3933 69.6948 25.66C69.3748 25.9133 69.2148 26.24 69.2148 26.64ZM77.5836 34.5V20.1H79.7236V34.5H77.5836ZM79.3636 28.74L83.9636 23.84H86.5236L81.7636 28.74H79.3636ZM79.3636 28.74L81.7836 28.42L86.8036 34.5H84.1436L79.3636 28.74ZM96.5306 23.56C97.4773 23.56 98.284 23.7867 98.9506 24.24C99.6306 24.68 100.151 25.32 100.511 26.16C100.871 26.9867 101.051 27.98 101.051 29.14C101.051 30.9533 100.644 32.3467 99.8306 33.32C99.0173 34.28 97.9173 34.76 96.5306 34.76C95.3306 34.76 94.3706 34.28 93.6506 33.32C92.944 32.36 92.5906 30.9667 92.5906 29.14C92.5906 28.0067 92.7506 27.02 93.0706 26.18C93.3906 25.34 93.8506 24.6933 94.4506 24.24C95.0506 23.7867 95.744 23.56 96.5306 23.56ZM96.2706 25.36C95.404 25.36 94.744 25.6867 94.2906 26.34C93.8506 26.98 93.6306 27.9133 93.6306 29.14C93.6306 30.3667 93.8573 31.3133 94.3106 31.98C94.7773 32.6333 95.4306 32.96 96.2706 32.96C97.1106 32.96 97.7506 32.6333 98.1906 31.98C98.644 31.3267 98.8706 30.38 98.8706 29.14C98.8706 27.9267 98.644 26.9933 98.1906 26.34C97.7373 25.6867 97.0973 25.36 96.2706 25.36ZM93.6306 38.9H91.4906V23.84H93.6306V38.9ZM102.731 34.5V23.84H104.871V34.5H102.731ZM104.871 28.68H104.071C104.125 27.48 104.331 26.5067 104.691 25.76C105.065 25 105.525 24.4467 106.071 24.1C106.631 23.74 107.245 23.56 107.911 23.56C108.125 23.56 108.325 23.5867 108.511 23.64C108.698 23.68 108.838 23.7467 108.931 23.84V25.72C108.771 25.6667 108.598 25.6333 108.411 25.62C108.225 25.5933 108.018 25.58 107.791 25.58C107.285 25.58 106.845 25.6533 106.471 25.8C106.111 25.9467 105.811 26.16 105.571 26.44C105.331 26.7067 105.151 27.0333 105.031 27.42C104.925 27.7933 104.871 28.2133 104.871 28.68ZM114.252 34.76C113.226 34.76 112.339 34.54 111.592 34.1C110.846 33.6467 110.272 33 109.872 32.16C109.472 31.32 109.272 30.3267 109.272 29.18C109.272 27.9667 109.472 26.9467 109.872 26.12C110.286 25.28 110.866 24.6467 111.612 24.22C112.372 23.78 113.252 23.56 114.252 23.56C115.292 23.56 116.186 23.7867 116.932 24.24C117.679 24.6933 118.246 25.34 118.632 26.18C119.032 27.0067 119.232 28.0067 119.232 29.18C119.232 30.3667 119.032 31.38 118.632 32.22C118.232 33.0467 117.659 33.68 116.912 34.12C116.166 34.5467 115.279 34.76 114.252 34.76ZM114.252 32.96C115.159 32.96 115.852 32.6333 116.332 31.98C116.812 31.3267 117.052 30.3933 117.052 29.18C117.052 27.9533 116.812 27.0133 116.332 26.36C115.852 25.6933 115.159 25.36 114.252 25.36C113.346 25.36 112.652 25.6867 112.172 26.34C111.692 26.9933 111.452 27.94 111.452 29.18C111.452 30.3933 111.692 31.3267 112.172 31.98C112.666 32.6333 113.359 32.96 114.252 32.96ZM124.916 34.76C123.982 34.76 123.176 34.54 122.496 34.1C121.816 33.6467 121.296 33 120.936 32.16C120.576 31.32 120.396 30.3267 120.396 29.18C120.396 27.3667 120.802 25.98 121.616 25.02C122.429 24.0467 123.529 23.56 124.916 23.56C126.116 23.56 127.069 24.04 127.776 25C128.496 25.96 128.856 27.3533 128.856 29.18C128.856 30.3267 128.696 31.32 128.376 32.16C128.056 32.9867 127.596 33.6267 126.996 34.08C126.409 34.5333 125.716 34.76 124.916 34.76ZM125.196 32.96C126.049 32.96 126.696 32.64 127.136 32C127.589 31.3467 127.816 30.4067 127.816 29.18C127.816 27.9533 127.582 27.0133 127.116 26.36C126.662 25.6933 126.022 25.36 125.196 25.36C124.342 25.36 123.689 25.6867 123.236 26.34C122.796 26.9933 122.576 27.94 122.576 29.18C122.576 30.3933 122.802 31.3267 123.256 31.98C123.722 32.6333 124.369 32.96 125.196 32.96ZM127.816 34.5V20.1H129.956V34.5H127.816ZM140.977 23.84V34.5H138.857V23.84H140.977ZM138.857 30.08H139.677C139.623 31.1333 139.417 32.0067 139.057 32.7C138.71 33.3933 138.243 33.9133 137.657 34.26C137.083 34.5933 136.423 34.76 135.677 34.76C134.957 34.76 134.33 34.62 133.797 34.34C133.263 34.0467 132.85 33.62 132.557 33.06C132.277 32.5 132.137 31.8 132.137 30.96V23.84H134.277V30.52C134.277 31.0267 134.35 31.4667 134.497 31.84C134.643 32.2133 134.87 32.5 135.177 32.7C135.483 32.8867 135.87 32.98 136.337 32.98C136.723 32.98 137.07 32.9 137.377 32.74C137.697 32.58 137.963 32.3667 138.177 32.1C138.39 31.82 138.557 31.5067 138.677 31.16C138.797 30.8133 138.857 30.4533 138.857 30.08ZM143.182 34.5V20.1H145.322V34.5H143.182ZM144.962 28.74L149.562 23.84H152.122L147.362 28.74H144.962ZM144.962 28.74L147.382 28.42L152.402 34.5H149.742L144.962 28.74ZM153.843 31.32V21.38H155.983V31.2C155.983 31.8133 156.103 32.2667 156.343 32.56C156.597 32.8533 157.09 33 157.823 33H158.243V34.56C158.137 34.6267 157.957 34.6733 157.703 34.7C157.463 34.74 157.197 34.76 156.903 34.76C155.877 34.76 155.11 34.4733 154.603 33.9C154.097 33.3267 153.843 32.4667 153.843 31.32ZM152.403 25.5V23.84H158.283V25.5H152.403ZM167.931 28.12L166.711 29.12C166.711 27.9067 166.471 26.9733 165.991 26.32C165.511 25.6667 164.825 25.34 163.931 25.34C163.025 25.34 162.331 25.6733 161.851 26.34C161.385 26.9933 161.151 27.94 161.151 29.18C161.151 30.3933 161.398 31.3333 161.891 32C162.398 32.6533 163.111 32.98 164.031 32.98C164.711 32.98 165.278 32.82 165.731 32.5C166.198 32.18 166.525 31.6867 166.711 31.02H168.951C168.658 32.26 168.071 33.1933 167.191 33.82C166.325 34.4467 165.271 34.76 164.031 34.76C162.991 34.76 162.091 34.54 161.331 34.1C160.571 33.6467 159.985 33 159.571 32.16C159.171 31.32 158.971 30.3267 158.971 29.18C158.971 27.9667 159.171 26.9467 159.571 26.12C159.985 25.28 160.565 24.6467 161.311 24.22C162.058 23.78 162.931 23.56 163.931 23.56C164.958 23.56 165.838 23.7867 166.571 24.24C167.305 24.68 167.871 25.3067 168.271 26.12C168.671 26.9333 168.871 27.9133 168.871 29.06V29.58H159.851V28.12H167.931ZM170.615 34.5V23.84H172.755V34.5H170.615ZM172.755 28.68H171.955C172.008 27.48 172.215 26.5067 172.575 25.76C172.948 25 173.408 24.4467 173.955 24.1C174.515 23.74 175.128 23.56 175.795 23.56C176.008 23.56 176.208 23.5867 176.395 23.64C176.582 23.68 176.722 23.7467 176.815 23.84V25.72C176.655 25.6667 176.482 25.6333 176.295 25.62C176.108 25.5933 175.902 25.58 175.675 25.58C175.168 25.58 174.728 25.6533 174.355 25.8C173.995 25.9467 173.695 26.16 173.455 26.44C173.215 26.7067 173.035 27.0333 172.915 27.42C172.808 27.7933 172.755 28.2133 172.755 28.68Z" fill="black"/>
<path d="M205.562 37.1255C205.413 36.9761 205.329 36.7736 205.329 36.5624C205.329 36.3512 205.413 36.1487 205.562 35.9993L213.763 27.7968L192.313 27.7968C192.101 27.7968 191.899 27.7128 191.749 27.5634C191.6 27.4139 191.516 27.2112 191.516 26.9999C191.516 26.7886 191.6 26.5859 191.749 26.4364C191.899 26.287 192.101 26.203 192.313 26.203L213.763 26.203L205.562 18.0005C205.421 17.8495 205.345 17.6497 205.348 17.4432C205.352 17.2368 205.436 17.0398 205.582 16.8938C205.728 16.7478 205.925 16.6642 206.131 16.6605C206.337 16.6569 206.537 16.7335 206.688 16.8743L216.251 26.4368C216.4 26.5862 216.484 26.7887 216.484 26.9999C216.484 27.2111 216.4 27.4136 216.251 27.563L206.688 37.1255C206.539 37.2748 206.336 37.3586 206.125 37.3586C205.914 37.3586 205.712 37.2748 205.562 37.1255Z" fill="black"/>
</svg>
