<svg width="415" height="124" viewBox="0 0 415 124" fill="none" xmlns="http://www.w3.org/2000/svg">
<path d="M0 1.35669H414" stroke="black" stroke-opacity="0.29"/>
<path d="M4.046 22.5247C3.29 22.5247 2.65533 22.3894 2.142 22.1187C1.638 21.848 1.25533 21.4794 0.994 21.0127C0.742 20.5367 0.620667 20.0047 0.63 19.4167H1.288C1.288 19.874 1.38133 20.2987 1.568 20.6907C1.764 21.0734 2.06267 21.3814 2.464 21.6147C2.87467 21.848 3.39733 21.9647 4.032 21.9647C4.61067 21.9647 5.082 21.8714 5.446 21.6847C5.81933 21.498 6.09933 21.246 6.286 20.9287C6.47267 20.6114 6.566 20.2567 6.566 19.8647C6.566 19.3887 6.45867 19.0107 6.244 18.7307C6.03867 18.4414 5.76333 18.208 5.418 18.0307C5.082 17.8534 4.704 17.704 4.284 17.5827C3.87333 17.452 3.46733 17.312 3.066 17.1627C2.41267 16.9294 1.91333 16.6354 1.568 16.2807C1.22267 15.9167 1.05 15.436 1.05 14.8387C1.05 14.3814 1.15733 13.9707 1.372 13.6067C1.596 13.2334 1.92267 12.9394 2.352 12.7247C2.78133 12.5007 3.304 12.3887 3.92 12.3887C4.48933 12.3887 4.99333 12.4914 5.432 12.6967C5.87067 12.902 6.216 13.2007 6.468 13.5927C6.72 13.9754 6.846 14.4514 6.846 15.0207H6.174C6.174 14.582 6.08067 14.2087 5.894 13.9007C5.71667 13.5927 5.45533 13.3594 5.11 13.2007C4.774 13.0327 4.37267 12.9487 3.906 12.9487C3.41133 12.9487 3.00067 13.0327 2.674 13.2007C2.34733 13.3594 2.10467 13.5787 1.946 13.8587C1.78733 14.1294 1.708 14.442 1.708 14.7967C1.708 15.198 1.806 15.52 2.002 15.7627C2.198 16.0054 2.45933 16.206 2.786 16.3647C3.122 16.514 3.49533 16.654 3.906 16.7847C4.31667 16.9154 4.73667 17.0647 5.166 17.2327C5.558 17.3914 5.908 17.578 6.216 17.7927C6.53333 18.0074 6.78067 18.278 6.958 18.6047C7.14467 18.9314 7.238 19.342 7.238 19.8367C7.238 20.322 7.12133 20.77 6.888 21.1807C6.65467 21.582 6.3 21.9087 5.824 22.1607C5.35733 22.4034 4.76467 22.5247 4.046 22.5247ZM10.9075 22.3567V13.0887H7.93953V12.5567H14.4915V13.0887H11.5375V22.3567H10.9075ZM15.4617 22.3567L24.3377 12.5567H25.0937L16.2177 22.3567H15.4617ZM20.3057 22.5247C19.3817 22.5247 18.565 22.3147 17.8557 21.8947C17.1557 21.4654 16.6097 20.8727 16.2177 20.1167C15.835 19.3514 15.6437 18.4647 15.6437 17.4567C15.6437 16.458 15.835 15.5807 16.2177 14.8247C16.6097 14.0594 17.1557 13.462 17.8557 13.0327C18.565 12.6034 19.3864 12.3887 20.3197 12.3887C21.2624 12.3887 22.0837 12.6034 22.7837 13.0327C23.493 13.462 24.039 14.0594 24.4217 14.8247C24.8137 15.5807 25.0097 16.458 25.0097 17.4567C25.0097 18.4647 24.8137 19.3514 24.4217 20.1167C24.039 20.8727 23.4977 21.4654 22.7977 21.8947C22.0977 22.3147 21.267 22.5247 20.3057 22.5247ZM20.3197 21.9507C21.0944 21.9507 21.785 21.7734 22.3917 21.4187C23.0077 21.064 23.4884 20.5507 23.8337 19.8787C24.179 19.2067 24.3517 18.3994 24.3517 17.4567C24.3517 16.514 24.179 15.7067 23.8337 15.0347C23.4884 14.3627 23.0077 13.8494 22.3917 13.4947C21.785 13.14 21.0944 12.9627 20.3197 12.9627C19.545 12.9627 18.8544 13.14 18.2477 13.4947C17.641 13.8494 17.165 14.3627 16.8197 15.0347C16.4744 15.7067 16.3017 16.514 16.3017 17.4567C16.3017 18.3994 16.4744 19.2067 16.8197 19.8787C17.165 20.5507 17.641 21.064 18.2477 21.4187C18.8544 21.7734 19.545 21.9507 20.3197 21.9507ZM26.7538 22.3567V12.5567H29.4978C30.2538 12.5567 30.8651 12.678 31.3318 12.9207C31.8078 13.1634 32.1531 13.4947 32.3678 13.9147C32.5918 14.3347 32.7038 14.8107 32.7038 15.3427C32.7038 15.884 32.5918 16.3694 32.3678 16.7987C32.1438 17.2187 31.7938 17.55 31.3178 17.7927C30.8511 18.026 30.2304 18.1427 29.4558 18.1427H27.3838V22.3567H26.7538ZM32.0598 22.3567L29.7918 17.9047H30.5198L32.8158 22.3567H32.0598ZM27.3838 17.6247H29.4698C30.3191 17.6247 30.9584 17.4287 31.3878 17.0367C31.8264 16.6447 32.0458 16.08 32.0458 15.3427C32.0458 14.624 31.8311 14.0734 31.4018 13.6907C30.9724 13.2987 30.3284 13.1027 29.4698 13.1027H27.3838V17.6247ZM34.6151 22.3567V12.5567H37.3591C38.1151 12.5567 38.7264 12.678 39.1931 12.9207C39.6691 13.1634 40.0144 13.4947 40.2291 13.9147C40.4531 14.3347 40.5651 14.8107 40.5651 15.3427C40.5651 15.884 40.4531 16.3694 40.2291 16.7987C40.0051 17.2187 39.6551 17.55 39.1791 17.7927C38.7124 18.026 38.0918 18.1427 37.3171 18.1427H35.2451V22.3567H34.6151ZM39.9211 22.3567L37.6531 17.9047H38.3811L40.6771 22.3567H39.9211ZM35.2451 17.6247H37.3311C38.1804 17.6247 38.8198 17.4287 39.2491 17.0367C39.6878 16.6447 39.9071 16.08 39.9071 15.3427C39.9071 14.624 39.6924 14.0734 39.2631 13.6907C38.8338 13.2987 38.1898 13.1027 37.3311 13.1027H35.2451V17.6247ZM42.4764 22.3567V12.5567H48.2304V13.0887H43.1064V17.1767H47.8104V17.7227H43.1064V21.8247H48.2304V22.3567H42.4764ZM50.1327 22.3567V12.5567H50.7627V21.8387H55.5227V22.3567H50.1327ZM59.7042 22.5247C58.9482 22.5247 58.3135 22.3894 57.8002 22.1187C57.2962 21.848 56.9135 21.4794 56.6522 21.0127C56.4002 20.5367 56.2789 20.0047 56.2882 19.4167H56.9462C56.9462 19.874 57.0395 20.2987 57.2262 20.6907C57.4222 21.0734 57.7209 21.3814 58.1222 21.6147C58.5329 21.848 59.0555 21.9647 59.6902 21.9647C60.2689 21.9647 60.7402 21.8714 61.1042 21.6847C61.4775 21.498 61.7575 21.246 61.9442 20.9287C62.1309 20.6114 62.2242 20.2567 62.2242 19.8647C62.2242 19.3887 62.1169 19.0107 61.9022 18.7307C61.6969 18.4414 61.4215 18.208 61.0762 18.0307C60.7402 17.8534 60.3622 17.704 59.9422 17.5827C59.5315 17.452 59.1255 17.312 58.7242 17.1627C58.0709 16.9294 57.5715 16.6354 57.2262 16.2807C56.8809 15.9167 56.7082 15.436 56.7082 14.8387C56.7082 14.3814 56.8155 13.9707 57.0302 13.6067C57.2542 13.2334 57.5809 12.9394 58.0102 12.7247C58.4395 12.5007 58.9622 12.3887 59.5782 12.3887C60.1475 12.3887 60.6515 12.4914 61.0902 12.6967C61.5289 12.902 61.8742 13.2007 62.1262 13.5927C62.3782 13.9754 62.5042 14.4514 62.5042 15.0207H61.8322C61.8322 14.582 61.7389 14.2087 61.5522 13.9007C61.3749 13.5927 61.1135 13.3594 60.7682 13.2007C60.4322 13.0327 60.0309 12.9487 59.5642 12.9487C59.0695 12.9487 58.6589 13.0327 58.3322 13.2007C58.0055 13.3594 57.7629 13.5787 57.6042 13.8587C57.4455 14.1294 57.3662 14.442 57.3662 14.7967C57.3662 15.198 57.4642 15.52 57.6602 15.7627C57.8562 16.0054 58.1175 16.206 58.4442 16.3647C58.7802 16.514 59.1535 16.654 59.5642 16.7847C59.9749 16.9154 60.3949 17.0647 60.8242 17.2327C61.2162 17.3914 61.5662 17.578 61.8742 17.7927C62.1915 18.0074 62.4389 18.278 62.6162 18.6047C62.8029 18.9314 62.8962 19.342 62.8962 19.8367C62.8962 20.322 62.7795 20.77 62.5462 21.1807C62.3129 21.582 61.9582 21.9087 61.4822 22.1607C61.0155 22.4034 60.4229 22.5247 59.7042 22.5247ZM64.5975 22.3567V12.5567H70.3515V13.0887H65.2275V17.1767H69.9315V17.7227H65.2275V21.8247H70.3515V22.3567H64.5975Z" fill="black"/>
<path d="M387.102 22.5247C386.477 22.5247 385.912 22.4127 385.408 22.1887C384.913 21.9554 384.517 21.6147 384.218 21.1667C383.929 20.7094 383.775 20.1494 383.756 19.4867H384.75C384.759 19.8787 384.857 20.238 385.044 20.5647C385.231 20.8914 385.497 21.1574 385.842 21.3627C386.187 21.5587 386.607 21.6567 387.102 21.6567C387.597 21.6567 388.007 21.5634 388.334 21.3767C388.661 21.19 388.908 20.938 389.076 20.6207C389.253 20.294 389.342 19.9394 389.342 19.5567C389.342 19.062 389.221 18.6654 388.978 18.3667C388.745 18.0587 388.432 17.8347 388.04 17.6947C387.648 17.5547 387.223 17.4847 386.766 17.4847H386.038V16.6447H386.766C387.457 16.6447 387.989 16.486 388.362 16.1687C388.745 15.8514 388.936 15.4174 388.936 14.8667C388.936 14.4094 388.782 14.0267 388.474 13.7187C388.175 13.4107 387.718 13.2567 387.102 13.2567C386.523 13.2567 386.057 13.4247 385.702 13.7607C385.357 14.0874 385.161 14.512 385.114 15.0347H384.106C384.134 14.5214 384.274 14.0687 384.526 13.6767C384.778 13.2754 385.123 12.9627 385.562 12.7387C386.01 12.5054 386.528 12.3887 387.116 12.3887C387.732 12.3887 388.25 12.5007 388.67 12.7247C389.099 12.9394 389.417 13.2334 389.622 13.6067C389.837 13.9707 389.944 14.372 389.944 14.8107C389.944 15.1374 389.888 15.45 389.776 15.7487C389.664 16.038 389.482 16.2994 389.23 16.5327C388.987 16.7567 388.67 16.9154 388.278 17.0087C388.67 17.0927 389.02 17.242 389.328 17.4567C389.636 17.6714 389.883 17.956 390.07 18.3107C390.257 18.656 390.35 19.0667 390.35 19.5427C390.35 20.0747 390.229 20.5694 389.986 21.0267C389.743 21.4747 389.379 21.8387 388.894 22.1187C388.409 22.3894 387.811 22.5247 387.102 22.5247ZM395.319 22.5247C394.693 22.5247 394.129 22.4127 393.625 22.1887C393.13 21.9554 392.733 21.6147 392.435 21.1667C392.145 20.7094 391.991 20.1494 391.973 19.4867H392.967C392.976 19.8787 393.074 20.238 393.261 20.5647C393.447 20.8914 393.713 21.1574 394.059 21.3627C394.404 21.5587 394.824 21.6567 395.319 21.6567C395.813 21.6567 396.224 21.5634 396.551 21.3767C396.877 21.19 397.125 20.938 397.293 20.6207C397.47 20.294 397.559 19.9394 397.559 19.5567C397.559 19.062 397.437 18.6654 397.195 18.3667C396.961 18.0587 396.649 17.8347 396.257 17.6947C395.865 17.5547 395.44 17.4847 394.983 17.4847H394.255V16.6447H394.983C395.673 16.6447 396.205 16.486 396.579 16.1687C396.961 15.8514 397.153 15.4174 397.153 14.8667C397.153 14.4094 396.999 14.0267 396.691 13.7187C396.392 13.4107 395.935 13.2567 395.319 13.2567C394.74 13.2567 394.273 13.4247 393.919 13.7607C393.573 14.0874 393.377 14.512 393.331 15.0347H392.323C392.351 14.5214 392.491 14.0687 392.743 13.6767C392.995 13.2754 393.34 12.9627 393.779 12.7387C394.227 12.5054 394.745 12.3887 395.333 12.3887C395.949 12.3887 396.467 12.5007 396.887 12.7247C397.316 12.9394 397.633 13.2334 397.839 13.6067C398.053 13.9707 398.161 14.372 398.161 14.8107C398.161 15.1374 398.105 15.45 397.993 15.7487C397.881 16.038 397.699 16.2994 397.447 16.5327C397.204 16.7567 396.887 16.9154 396.495 17.0087C396.887 17.0927 397.237 17.242 397.545 17.4567C397.853 17.6714 398.1 17.956 398.287 18.3107C398.473 18.656 398.567 19.0667 398.567 19.5427C398.567 20.0747 398.445 20.5694 398.203 21.0267C397.96 21.4747 397.596 21.8387 397.111 22.1187C396.625 22.3894 396.028 22.5247 395.319 22.5247ZM407.391 22.5247C406.738 22.5247 406.154 22.3707 405.641 22.0627C405.128 21.7547 404.722 21.3254 404.423 20.7747C404.124 20.2147 403.975 19.5707 403.975 18.8427C403.975 18.0867 404.124 17.438 404.423 16.8967C404.722 16.346 405.128 15.9167 405.641 15.6087C406.164 15.2914 406.747 15.1327 407.391 15.1327C408.212 15.1327 408.894 15.3474 409.435 15.7767C409.986 16.1967 410.336 16.7567 410.485 17.4567H409.505C409.402 16.99 409.155 16.6307 408.763 16.3787C408.38 16.1174 407.918 15.9867 407.377 15.9867C406.957 15.9867 406.565 16.094 406.201 16.3087C405.837 16.514 405.543 16.8267 405.319 17.2467C405.095 17.6667 404.983 18.1987 404.983 18.8427C404.983 19.3187 405.048 19.734 405.179 20.0887C405.31 20.4434 405.487 20.742 405.711 20.9847C405.935 21.218 406.192 21.3954 406.481 21.5167C406.77 21.638 407.069 21.6987 407.377 21.6987C407.732 21.6987 408.054 21.6427 408.343 21.5307C408.642 21.4094 408.894 21.2367 409.099 21.0127C409.304 20.7887 409.44 20.518 409.505 20.2007H410.485C410.345 20.882 410 21.442 409.449 21.8807C408.898 22.31 408.212 22.5247 407.391 22.5247ZM412.172 22.3567V12.2767H413.152V22.3567H412.172Z" fill="black"/>
<line y1="32.8567" x2="414" y2="32.8567" stroke="black" stroke-opacity="0.29"/>
<path d="M0.462 52.3567L4.06 42.5567H4.732L8.288 52.3567H7.616L4.382 43.3687L1.12 52.3567H0.462ZM1.988 49.2487L2.198 48.7167H6.566L6.776 49.2487H1.988ZM9.96472 52.3567V42.5567H10.5947V51.8387H15.3547V52.3567H9.96472ZM16.9921 52.3567V42.5567H17.6221V47.2747L22.1161 42.5567H22.9421L18.8121 46.8407L22.9841 52.3567H22.1861L18.3501 47.3027L17.6221 48.0867V52.3567H16.9921ZM28.221 52.5247C27.2877 52.5247 26.471 52.3147 25.771 51.8947C25.071 51.4654 24.525 50.8727 24.133 50.1167C23.741 49.3514 23.545 48.4647 23.545 47.4567C23.545 46.458 23.741 45.5807 24.133 44.8247C24.525 44.0594 25.071 43.462 25.771 43.0327C26.471 42.6034 27.2877 42.3887 28.221 42.3887C29.173 42.3887 29.999 42.6034 30.699 43.0327C31.4084 43.462 31.9544 44.0594 32.337 44.8247C32.7197 45.5807 32.911 46.458 32.911 47.4567C32.911 48.4647 32.7197 49.3514 32.337 50.1167C31.9544 50.8727 31.4084 51.4654 30.699 51.8947C29.999 52.3147 29.173 52.5247 28.221 52.5247ZM28.235 51.9507C29.0097 51.9507 29.7004 51.7734 30.307 51.4187C30.9137 51.064 31.3897 50.5507 31.735 49.8787C32.0804 49.2067 32.253 48.3994 32.253 47.4567C32.253 46.514 32.0804 45.7067 31.735 45.0347C31.3897 44.3627 30.9137 43.8494 30.307 43.4947C29.7004 43.14 29.0097 42.9627 28.235 42.9627C27.4604 42.9627 26.7697 43.14 26.163 43.4947C25.5564 43.8494 25.0757 44.3627 24.721 45.0347C24.3757 45.7067 24.203 46.514 24.203 47.4567C24.203 48.3994 24.3757 49.2067 24.721 49.8787C25.0757 50.5507 25.5564 51.064 26.163 51.4187C26.7697 51.7734 27.4604 51.9507 28.235 51.9507ZM41.0118 52.3567V42.5567H41.6418V52.3567H41.0118ZM34.6698 52.3567V42.5567H35.2998V52.3567H34.6698ZM35.0898 47.6247V47.0927H41.2638V47.6247H35.0898ZM48.0726 52.5247C47.1393 52.5247 46.3226 52.3147 45.6226 51.8947C44.9226 51.4654 44.3766 50.8727 43.9846 50.1167C43.5926 49.3514 43.3966 48.4647 43.3966 47.4567C43.3966 46.458 43.5926 45.5807 43.9846 44.8247C44.3766 44.0594 44.9226 43.462 45.6226 43.0327C46.3226 42.6034 47.1393 42.3887 48.0726 42.3887C49.0246 42.3887 49.8506 42.6034 50.5506 43.0327C51.2599 43.462 51.8059 44.0594 52.1886 44.8247C52.5713 45.5807 52.7626 46.458 52.7626 47.4567C52.7626 48.4647 52.5713 49.3514 52.1886 50.1167C51.8059 50.8727 51.2599 51.4654 50.5506 51.8947C49.8506 52.3147 49.0246 52.5247 48.0726 52.5247ZM48.0866 51.9507C48.8613 51.9507 49.5519 51.7734 50.1586 51.4187C50.7653 51.064 51.2413 50.5507 51.5866 49.8787C51.9319 49.2067 52.1046 48.3994 52.1046 47.4567C52.1046 46.514 51.9319 45.7067 51.5866 45.0347C51.2413 44.3627 50.7653 43.8494 50.1586 43.4947C49.5519 43.14 48.8613 42.9627 48.0866 42.9627C47.3119 42.9627 46.6213 43.14 46.0146 43.4947C45.4079 43.8494 44.9273 44.3627 44.5726 45.0347C44.2273 45.7067 44.0546 46.514 44.0546 47.4567C44.0546 48.3994 44.2273 49.2067 44.5726 49.8787C44.9273 50.5507 45.4079 51.064 46.0146 51.4187C46.6213 51.7734 47.3119 51.9507 48.0866 51.9507ZM54.5214 52.3567V42.5567H55.1514V51.8387H59.9114V52.3567H54.5214Z" fill="black"/>
<path d="M387.774 52.5247C386.915 52.5247 386.183 52.3147 385.576 51.8947C384.969 51.4654 384.503 50.8727 384.176 50.1167C383.849 49.3514 383.686 48.4647 383.686 47.4567C383.686 46.4487 383.849 45.5667 384.176 44.8107C384.503 44.0454 384.969 43.4527 385.576 43.0327C386.183 42.6034 386.911 42.3887 387.76 42.3887C388.609 42.3887 389.337 42.6034 389.944 43.0327C390.551 43.4527 391.013 44.0454 391.33 44.8107C391.657 45.5667 391.82 46.4487 391.82 47.4567C391.82 48.4647 391.657 49.3514 391.33 50.1167C391.013 50.8727 390.551 51.4654 389.944 51.8947C389.337 52.3147 388.614 52.5247 387.774 52.5247ZM387.76 51.6707C388.348 51.6707 388.871 51.5027 389.328 51.1667C389.795 50.8307 390.159 50.35 390.42 49.7247C390.681 49.09 390.812 48.334 390.812 47.4567C390.812 46.5794 390.681 45.828 390.42 45.2027C390.159 44.5774 389.795 44.0967 389.328 43.7607C388.871 43.4247 388.348 43.2567 387.76 43.2567C387.181 43.2567 386.659 43.4247 386.192 43.7607C385.725 44.0967 385.357 44.5774 385.086 45.2027C384.825 45.828 384.694 46.5794 384.694 47.4567C384.694 48.334 384.825 49.09 385.086 49.7247C385.357 50.35 385.725 50.8307 386.192 51.1667C386.659 51.5027 387.181 51.6707 387.76 51.6707ZM393.257 52.4267C393.052 52.4267 392.879 52.3567 392.739 52.2167C392.609 52.0767 392.543 51.904 392.543 51.6987C392.543 51.4934 392.609 51.3254 392.739 51.1947C392.879 51.0547 393.052 50.9847 393.257 50.9847C393.463 50.9847 393.631 51.0547 393.761 51.1947C393.901 51.3254 393.971 51.498 393.971 51.7127C393.971 51.9087 393.901 52.0767 393.761 52.2167C393.631 52.3567 393.463 52.4267 393.257 52.4267ZM398.794 52.5247C397.935 52.5247 397.202 52.3147 396.596 51.8947C395.989 51.4654 395.522 50.8727 395.196 50.1167C394.869 49.3514 394.706 48.4647 394.706 47.4567C394.706 46.4487 394.869 45.5667 395.196 44.8107C395.522 44.0454 395.989 43.4527 396.596 43.0327C397.202 42.6034 397.93 42.3887 398.78 42.3887C399.629 42.3887 400.357 42.6034 400.964 43.0327C401.57 43.4527 402.032 44.0454 402.35 44.8107C402.676 45.5667 402.84 46.4487 402.84 47.4567C402.84 48.4647 402.676 49.3514 402.35 50.1167C402.032 50.8727 401.57 51.4654 400.964 51.8947C400.357 52.3147 399.634 52.5247 398.794 52.5247ZM398.78 51.6707C399.368 51.6707 399.89 51.5027 400.348 51.1667C400.814 50.8307 401.178 50.35 401.44 49.7247C401.701 49.09 401.832 48.334 401.832 47.4567C401.832 46.5794 401.701 45.828 401.44 45.2027C401.178 44.5774 400.814 44.0967 400.348 43.7607C399.89 43.4247 399.368 43.2567 398.78 43.2567C398.201 43.2567 397.678 43.4247 397.212 43.7607C396.745 44.0967 396.376 44.5774 396.106 45.2027C395.844 45.828 395.714 46.5794 395.714 47.4567C395.714 48.334 395.844 49.09 396.106 49.7247C396.376 50.35 396.745 50.8307 397.212 51.1667C397.678 51.5027 398.201 51.6707 398.78 51.6707ZM405.397 52.3567L411.151 42.5567H412.131L406.391 52.3567H405.397ZM411.347 52.5247C410.937 52.5247 410.563 52.4314 410.227 52.2447C409.901 52.058 409.639 51.792 409.443 51.4467C409.257 51.092 409.163 50.6814 409.163 50.2147C409.163 49.7387 409.257 49.328 409.443 48.9827C409.639 48.6374 409.905 48.3714 410.241 48.1847C410.577 47.998 410.946 47.9047 411.347 47.9047C411.767 47.9047 412.141 47.998 412.467 48.1847C412.794 48.3714 413.051 48.6374 413.237 48.9827C413.424 49.328 413.517 49.7387 413.517 50.2147C413.517 50.6814 413.419 51.092 413.223 51.4467C413.037 51.792 412.78 52.058 412.453 52.2447C412.127 52.4314 411.758 52.5247 411.347 52.5247ZM411.347 51.7407C411.581 51.7407 411.795 51.6847 411.991 51.5727C412.187 51.4607 412.346 51.2927 412.467 51.0687C412.598 50.8354 412.663 50.5507 412.663 50.2147C412.663 49.8694 412.598 49.5847 412.467 49.3607C412.346 49.1367 412.187 48.9687 411.991 48.8567C411.805 48.7447 411.59 48.6887 411.347 48.6887C411.123 48.6887 410.909 48.7447 410.703 48.8567C410.498 48.9687 410.33 49.1367 410.199 49.3607C410.078 49.5847 410.017 49.8694 410.017 50.2147C410.017 50.5507 410.078 50.8354 410.199 51.0687C410.33 51.2927 410.493 51.4607 410.689 51.5727C410.895 51.6847 411.114 51.7407 411.347 51.7407ZM406.293 47.0227C405.883 47.0227 405.509 46.9294 405.173 46.7427C404.847 46.556 404.585 46.29 404.389 45.9447C404.203 45.59 404.109 45.1794 404.109 44.7127C404.109 44.2367 404.207 43.826 404.403 43.4807C404.599 43.1354 404.861 42.8694 405.187 42.6827C405.523 42.496 405.897 42.4027 406.307 42.4027C406.718 42.4027 407.087 42.496 407.413 42.6827C407.74 42.8694 407.997 43.1354 408.183 43.4807C408.379 43.826 408.477 44.2367 408.477 44.7127C408.477 45.1794 408.379 45.59 408.183 45.9447C407.997 46.29 407.735 46.556 407.399 46.7427C407.073 46.9294 406.704 47.0227 406.293 47.0227ZM406.293 46.2387C406.527 46.2387 406.741 46.1827 406.937 46.0707C407.133 45.9587 407.292 45.7907 407.413 45.5667C407.544 45.3334 407.609 45.0487 407.609 44.7127C407.609 44.3674 407.549 44.0827 407.427 43.8587C407.306 43.6347 407.147 43.4667 406.951 43.3547C406.755 43.2334 406.541 43.1727 406.307 43.1727C406.074 43.1727 405.855 43.2334 405.649 43.3547C405.453 43.4667 405.29 43.6347 405.159 43.8587C405.038 44.0827 404.977 44.3674 404.977 44.7127C404.977 45.0487 405.038 45.3334 405.159 45.5667C405.281 45.7907 405.444 45.9587 405.649 46.0707C405.855 46.1827 406.069 46.2387 406.293 46.2387Z" fill="black"/>
<line y1="62.8567" x2="414" y2="62.8567" stroke="black" stroke-opacity="0.29"/>
<path d="M3.388 82.3567V73.0887H0.42V72.5567H6.972V73.0887H4.018V82.3567H3.388ZM10.8402 82.3567V78.2687L7.73216 72.5567H8.43216L11.2462 77.8207H11.0782L13.8222 72.5567H14.5362L11.4702 78.2687V82.3567H10.8402ZM15.9393 82.3567V72.5567H18.7953C19.5513 72.5567 20.1673 72.678 20.6433 72.9207C21.1287 73.154 21.4833 73.476 21.7073 73.8867C21.9313 74.2974 22.0433 74.7687 22.0433 75.3007C22.0433 75.8327 21.9313 76.3087 21.7073 76.7287C21.4833 77.1394 21.1333 77.4614 20.6573 77.6947C20.1813 77.928 19.5607 78.0447 18.7953 78.0447H16.5693V82.3567H15.9393ZM16.5693 77.4987H18.8093C19.6773 77.4987 20.3213 77.312 20.7413 76.9387C21.1707 76.5654 21.3853 76.0194 21.3853 75.3007C21.3853 74.582 21.1707 74.036 20.7413 73.6627C20.3213 73.2894 19.6773 73.1027 18.8093 73.1027H16.5693V77.4987ZM23.6503 82.3567V72.5567H29.4043V73.0887H24.2803V77.1767H28.9843V77.7227H24.2803V81.8247H29.4043V82.3567H23.6503Z" fill="black"/>
<path d="M396.092 82.3567V72.5567H397.072V82.3567H396.092ZM399.25 82.3567V72.5567H402.33C403.086 72.5567 403.712 72.6827 404.206 72.9347C404.701 73.1774 405.065 73.5134 405.298 73.9427C405.532 74.3627 405.648 74.8434 405.648 75.3847C405.648 75.9167 405.532 76.3974 405.298 76.8267C405.065 77.256 404.701 77.5967 404.206 77.8487C403.721 78.1007 403.096 78.2267 402.33 78.2267H400.23V82.3567H399.25ZM400.23 77.3867H402.316C403.156 77.3867 403.754 77.2094 404.108 76.8547C404.463 76.4907 404.64 76.0007 404.64 75.3847C404.64 74.75 404.463 74.26 404.108 73.9147C403.754 73.56 403.156 73.3827 402.316 73.3827H400.23V77.3867ZM405.374 82.3567L408.986 72.5567H409.994L413.606 82.3567H412.57L409.49 73.8447L406.396 82.3567H405.374ZM407.026 79.7107L407.32 78.8987H411.646L411.94 79.7107H407.026Z" fill="black"/>
<line y1="92.8567" x2="414" y2="92.8567" stroke="black" stroke-opacity="0.29"/>
<path d="M1.078 112.357V102.557H1.708V107.275L6.202 102.557H7.028L2.898 106.841L7.07 112.357H6.272L2.436 107.303L1.708 108.087V112.357H1.078ZM7.87216 112.357L11.4702 102.557H12.1422L15.6982 112.357H15.0262L11.7922 103.369L8.53016 112.357H7.87216ZM9.39816 109.249L9.60816 108.717H13.9762L14.1862 109.249H9.39816ZM17.3749 112.357V102.557H18.0049V111.839H22.7649V112.357H17.3749ZM27.7152 112.525C26.7819 112.525 25.9652 112.315 25.2652 111.895C24.5652 111.465 24.0192 110.873 23.6272 110.117C23.2352 109.351 23.0392 108.465 23.0392 107.457C23.0392 106.458 23.2352 105.581 23.6272 104.825C24.0192 104.059 24.5652 103.462 25.2652 103.033C25.9652 102.603 26.7819 102.389 27.7152 102.389C28.6672 102.389 29.4932 102.603 30.1932 103.033C30.9025 103.462 31.4485 104.059 31.8312 104.825C32.2139 105.581 32.4052 106.458 32.4052 107.457C32.4052 108.465 32.2139 109.351 31.8312 110.117C31.4485 110.873 30.9025 111.465 30.1932 111.895C29.4932 112.315 28.6672 112.525 27.7152 112.525ZM27.7292 111.951C28.5039 111.951 29.1945 111.773 29.8012 111.419C30.4079 111.064 30.8839 110.551 31.2292 109.879C31.5745 109.207 31.7472 108.399 31.7472 107.457C31.7472 106.514 31.5745 105.707 31.2292 105.035C30.8839 104.363 30.4079 103.849 29.8012 103.495C29.1945 103.14 28.5039 102.963 27.7292 102.963C26.9545 102.963 26.2639 103.14 25.6572 103.495C25.0505 103.849 24.5699 104.363 24.2152 105.035C23.8699 105.707 23.6972 106.514 23.6972 107.457C23.6972 108.399 23.8699 109.207 24.2152 109.879C24.5699 110.551 25.0505 111.064 25.6572 111.419C26.2639 111.773 26.9545 111.951 27.7292 111.951ZM34.1639 112.357V102.557H36.9079C37.6639 102.557 38.2753 102.678 38.7419 102.921C39.2179 103.163 39.5633 103.495 39.7779 103.915C40.0019 104.335 40.1139 104.811 40.1139 105.343C40.1139 105.884 40.0019 106.369 39.7779 106.799C39.5539 107.219 39.2039 107.55 38.7279 107.793C38.2613 108.026 37.6406 108.143 36.8659 108.143H34.7939V112.357H34.1639ZM39.4699 112.357L37.2019 107.905H37.9299L40.2259 112.357H39.4699ZM34.7939 107.625H36.8799C37.7293 107.625 38.3686 107.429 38.7979 107.037C39.2366 106.645 39.4559 106.08 39.4559 105.343C39.4559 104.624 39.2413 104.073 38.8119 103.691C38.3826 103.299 37.7386 103.103 36.8799 103.103H34.7939V107.625ZM42.0253 112.357V102.557H42.6553V112.357H42.0253ZM44.8143 112.357V102.557H50.5683V103.089H45.4443V107.177H50.1483V107.723H45.4443V111.825H50.5683V112.357H44.8143ZM52.4706 112.357V102.557H55.2146C55.9706 102.557 56.5819 102.678 57.0486 102.921C57.5246 103.163 57.8699 103.495 58.0846 103.915C58.3086 104.335 58.4206 104.811 58.4206 105.343C58.4206 105.884 58.3086 106.369 58.0846 106.799C57.8606 107.219 57.5106 107.55 57.0346 107.793C56.5679 108.026 55.9472 108.143 55.1726 108.143H53.1006V112.357H52.4706ZM57.7766 112.357L55.5086 107.905H56.2366L58.5326 112.357H57.7766ZM53.1006 107.625H55.1866C56.0359 107.625 56.6752 107.429 57.1046 107.037C57.5432 106.645 57.7626 106.08 57.7626 105.343C57.7626 104.624 57.5479 104.073 57.1186 103.691C56.6892 103.299 56.0452 103.103 55.1866 103.103H53.1006V107.625Z" fill="black"/>
<path d="M372.536 112.525C371.845 112.525 371.262 112.394 370.786 112.133C370.31 111.862 369.927 111.507 369.638 111.069C369.349 110.621 369.139 110.121 369.008 109.571C368.877 109.011 368.812 108.441 368.812 107.863C368.812 106.78 368.957 105.828 369.246 105.007C369.545 104.185 369.974 103.546 370.534 103.089C371.094 102.622 371.766 102.389 372.55 102.389C373.147 102.389 373.661 102.505 374.09 102.739C374.529 102.972 374.874 103.285 375.126 103.677C375.387 104.069 375.546 104.512 375.602 105.007H374.692C374.599 104.447 374.361 104.017 373.978 103.719C373.605 103.411 373.129 103.257 372.55 103.257C372.027 103.257 371.556 103.415 371.136 103.733C370.725 104.05 370.394 104.54 370.142 105.203C369.899 105.865 369.759 106.701 369.722 107.709C369.722 107.737 369.722 107.765 369.722 107.793C369.722 107.811 369.722 107.835 369.722 107.863C369.871 107.545 370.081 107.256 370.352 106.995C370.632 106.724 370.963 106.509 371.346 106.351C371.738 106.183 372.172 106.099 372.648 106.099C373.208 106.099 373.735 106.229 374.23 106.491C374.725 106.752 375.121 107.121 375.42 107.597C375.728 108.063 375.882 108.614 375.882 109.249C375.882 109.79 375.751 110.313 375.49 110.817C375.229 111.311 374.846 111.722 374.342 112.049C373.847 112.366 373.245 112.525 372.536 112.525ZM372.48 111.657C372.937 111.657 373.348 111.554 373.712 111.349C374.076 111.143 374.361 110.863 374.566 110.509C374.771 110.154 374.874 109.753 374.874 109.305C374.874 108.829 374.771 108.418 374.566 108.073C374.361 107.718 374.076 107.447 373.712 107.261C373.348 107.065 372.937 106.967 372.48 106.967C372.023 106.967 371.607 107.074 371.234 107.289C370.87 107.494 370.581 107.779 370.366 108.143C370.151 108.497 370.044 108.889 370.044 109.319C370.044 109.767 370.147 110.168 370.352 110.523C370.567 110.877 370.856 111.157 371.22 111.363C371.593 111.559 372.013 111.657 372.48 111.657ZM381.579 112.525C380.72 112.525 379.987 112.315 379.381 111.895C378.774 111.465 378.307 110.873 377.981 110.117C377.654 109.351 377.491 108.465 377.491 107.457C377.491 106.449 377.654 105.567 377.981 104.811C378.307 104.045 378.774 103.453 379.381 103.033C379.987 102.603 380.715 102.389 381.565 102.389C382.414 102.389 383.142 102.603 383.749 103.033C384.355 103.453 384.817 104.045 385.135 104.811C385.461 105.567 385.625 106.449 385.625 107.457C385.625 108.465 385.461 109.351 385.135 110.117C384.817 110.873 384.355 111.465 383.749 111.895C383.142 112.315 382.419 112.525 381.579 112.525ZM381.565 111.671C382.153 111.671 382.675 111.503 383.133 111.167C383.599 110.831 383.963 110.35 384.225 109.725C384.486 109.09 384.617 108.334 384.617 107.457C384.617 106.579 384.486 105.828 384.225 105.203C383.963 104.577 383.599 104.097 383.133 103.761C382.675 103.425 382.153 103.257 381.565 103.257C380.986 103.257 380.463 103.425 379.997 103.761C379.53 104.097 379.161 104.577 378.891 105.203C378.629 105.828 378.499 106.579 378.499 107.457C378.499 108.334 378.629 109.09 378.891 109.725C379.161 110.35 379.53 110.831 379.997 111.167C380.463 111.503 380.986 111.671 381.565 111.671ZM395.426 112.357L391.968 108.493L395.132 105.301H396.35L392.836 108.815L392.85 108.157L396.686 112.357H395.426ZM391.156 112.357V102.277H392.136V112.357H391.156ZM400.581 112.525C399.927 112.525 399.344 112.371 398.831 112.063C398.317 111.755 397.911 111.325 397.613 110.775C397.314 110.215 397.165 109.571 397.165 108.843C397.165 108.087 397.314 107.438 397.613 106.897C397.911 106.346 398.317 105.917 398.831 105.609C399.353 105.291 399.937 105.133 400.581 105.133C401.402 105.133 402.083 105.347 402.625 105.777C403.175 106.197 403.525 106.757 403.675 107.457H402.695C402.592 106.99 402.345 106.631 401.953 106.379C401.57 106.117 401.108 105.987 400.567 105.987C400.147 105.987 399.755 106.094 399.391 106.309C399.027 106.514 398.733 106.827 398.509 107.247C398.285 107.667 398.173 108.199 398.173 108.843C398.173 109.319 398.238 109.734 398.369 110.089C398.499 110.443 398.677 110.742 398.901 110.985C399.125 111.218 399.381 111.395 399.671 111.517C399.96 111.638 400.259 111.699 400.567 111.699C400.921 111.699 401.243 111.643 401.533 111.531C401.831 111.409 402.083 111.237 402.289 111.013C402.494 110.789 402.629 110.518 402.695 110.201H403.675C403.535 110.882 403.189 111.442 402.639 111.881C402.088 112.31 401.402 112.525 400.581 112.525ZM407.615 112.525C407.046 112.525 406.57 112.422 406.187 112.217C405.814 112.011 405.534 111.745 405.347 111.419C405.17 111.092 405.081 110.733 405.081 110.341C405.081 109.855 405.203 109.445 405.445 109.109C405.697 108.773 406.047 108.521 406.495 108.353C406.943 108.185 407.466 108.101 408.063 108.101H409.967C409.967 107.643 409.897 107.256 409.757 106.939C409.617 106.621 409.412 106.383 409.141 106.225C408.871 106.057 408.53 105.973 408.119 105.973C407.643 105.973 407.233 106.094 406.887 106.337C406.542 106.579 406.327 106.934 406.243 107.401H405.221C405.277 106.906 405.445 106.491 405.725 106.155C406.015 105.819 406.369 105.567 406.789 105.399C407.209 105.221 407.653 105.133 408.119 105.133C408.773 105.133 409.305 105.259 409.715 105.511C410.126 105.753 410.434 106.089 410.639 106.519C410.845 106.948 410.947 107.443 410.947 108.003V112.357H410.051L409.995 111.069C409.911 111.265 409.795 111.451 409.645 111.629C409.505 111.806 409.337 111.96 409.141 112.091C408.955 112.221 408.735 112.324 408.483 112.399C408.231 112.483 407.942 112.525 407.615 112.525ZM407.727 111.671C408.073 111.671 408.381 111.601 408.651 111.461C408.931 111.311 409.169 111.12 409.365 110.887C409.561 110.653 409.711 110.392 409.813 110.103C409.916 109.804 409.967 109.496 409.967 109.179V108.927H408.133C407.639 108.927 407.242 108.987 406.943 109.109C406.645 109.23 406.43 109.393 406.299 109.599C406.169 109.804 406.103 110.042 406.103 110.313C406.103 110.583 406.164 110.821 406.285 111.027C406.407 111.223 406.589 111.381 406.831 111.503C407.083 111.615 407.382 111.671 407.727 111.671ZM412.799 112.357V102.277H413.779V112.357H412.799Z" fill="black"/>
<line y1="122.857" x2="414" y2="122.857" stroke="black" stroke-opacity="0.29"/>
</svg>
