<svg width="20" height="20" viewBox="0 0 20 20" fill="none" xmlns="http://www.w3.org/2000/svg">
<g id="iconoir:tiktok" clip-path="url(#clip0_1_440)">
<g id="Group">
<path id="Vector" d="M19.67 6.18611V14.4839C19.67 15.8593 19.1236 17.1784 18.151 18.151C17.1784 19.1236 15.8593 19.67 14.4839 19.67H6.18611C4.81067 19.67 3.49156 19.1236 2.51898 18.151C1.54639 17.1784 1 15.8593 1 14.4839V6.18611C1 4.81067 1.54639 3.49156 2.51898 2.51898C3.49156 1.54639 4.81067 1 6.18611 1H14.4839C15.8593 1 17.1784 1.54639 18.151 2.51898C19.1236 3.49156 19.67 4.81067 19.67 6.18611Z" stroke="white" stroke-linecap="round" stroke-linejoin="round"/>
<path id="Vector_2" d="M8.26035 10.3352C7.64492 10.3352 7.04331 10.5176 6.5316 10.8596C6.01989 11.2015 5.62106 11.6875 5.38554 12.256C5.15003 12.8246 5.08841 13.4503 5.20847 14.0539C5.32854 14.6575 5.62489 15.2119 6.06007 15.6471C6.49524 16.0823 7.04969 16.3786 7.65329 16.4987C8.2569 16.6188 8.88255 16.5571 9.45113 16.3216C10.0197 16.0861 10.5057 15.6873 10.8476 15.1756C11.1895 14.6639 11.372 14.0622 11.372 13.4468V4.11182C11.7174 5.14904 13.0316 7.22348 15.5209 7.22348" stroke="white" stroke-linecap="round" stroke-linejoin="round"/>
</g>
</g>
<defs>
<clipPath id="clip0_1_440">
<rect width="20" height="20" fill="white"/>
</clipPath>
</defs>
</svg>
